<svg xmlns="http://www.w3.org/2000/svg" xmlns:rdkit="http://www.rdkit.org/xml" xmlns:xlink="http://www.w3.org/1999/xlink" version="1.1" baseProfile="full" xml:space="preserve" width="750px" height="750px" viewBox="0 0 750 750">
<!-- END OF HEADER -->
<rect style="opacity:1.0;fill:#FFFFFF;stroke:none" width="750" height="750" x="0" y="0"> </rect>
<rect style="opacity:1.0;fill:#FFFFFF;stroke:none" width="750" height="750" x="0" y="0"> </rect>
<rect style="opacity:1.0;fill:#FFFFFF;stroke:none" width="750" height="750" x="0" y="0"> </rect>
<rect style="opacity:1.0;fill:#FFFFFF;stroke:none" width="750" height="750" x="0" y="0"> </rect>
<rect style="opacity:1.0;fill:#FFFFFF;stroke:none" width="750" height="750" x="0" y="0"> </rect>
<rect style="opacity:1.0;fill:#FFFFFF;stroke:none" width="750" height="750" x="0" y="0"> </rect>
<rect style="opacity:1.0;fill:#FFFFFF;stroke:none" width="750" height="750" x="0" y="0"> </rect>
<rect style="opacity:1.0;fill:#FFFFFF;stroke:none" width="750" height="750" x="0" y="0"> </rect>
<rect style="opacity:1.0;fill:#FFFFFF;stroke:none" width="750" height="750" x="0" y="0"> </rect>
<rect style="opacity:1.0;fill:#FFFFFF;stroke:none" width="750" height="750" x="0" y="0"> </rect>
<path class="bond-0 atom-0 atom-1" d="M 122.206,168.862 L 134.725,161.634" style="fill:none;fill-rule:evenodd;stroke:#0000FF;stroke-width:2.0px;stroke-linecap:butt;stroke-linejoin:miter;stroke-opacity:1"/>
<path class="bond-1 atom-1 atom-2" d="M 141.678,161.76 L 150.024,166.578" style="fill:none;fill-rule:evenodd;stroke:#0000FF;stroke-width:2.0px;stroke-linecap:butt;stroke-linejoin:miter;stroke-opacity:1"/>
<path class="bond-1 atom-1 atom-2" d="M 150.024,166.578 L 158.369,171.396" style="fill:none;fill-rule:evenodd;stroke:#7F4C19;stroke-width:2.0px;stroke-linecap:butt;stroke-linejoin:miter;stroke-opacity:1"/>
<path class="atom-0" d="M 104.827 169.397 L 105.867 169.397 L 105.867 172.658 L 109.789 172.658 L 109.789 169.397 L 110.829 169.397 L 110.829 177.067 L 109.789 177.067 L 109.789 173.524 L 105.867 173.524 L 105.867 177.067 L 104.827 177.067 L 104.827 169.397 " fill="#0000FF"/>
<path class="atom-0" d="M 112.942 169.397 L 115.455 173.459 Q 115.704 173.86, 116.105 174.586 Q 116.506 175.312, 116.527 175.355 L 116.527 169.397 L 117.546 169.397 L 117.546 177.067 L 116.495 177.067 L 113.797 172.625 Q 113.483 172.105, 113.147 171.509 Q 112.822 170.913, 112.725 170.729 L 112.725 177.067 L 111.728 177.067 L 111.728 169.397 L 112.942 169.397 " fill="#0000FF"/>
<path class="atom-0" d="M 118.189 170.779 L 119.541 170.779 L 119.541 169.356 L 120.141 169.356 L 120.141 170.779 L 121.528 170.779 L 121.528 171.294 L 120.141 171.294 L 120.141 172.724 L 119.541 172.724 L 119.541 171.294 L 118.189 171.294 L 118.189 170.779 " fill="#0000FF"/>
<path class="atom-1" d="M 136.397 155.855 L 138.91 159.917 Q 139.16 160.318, 139.56 161.044 Q 139.961 161.77, 139.983 161.813 L 139.983 155.855 L 141.001 155.855 L 141.001 163.525 L 139.95 163.525 L 137.253 159.083 Q 136.939 158.563, 136.603 157.967 Q 136.278 157.371, 136.18 157.187 L 136.18 163.525 L 135.184 163.525 L 135.184 155.855 L 136.397 155.855 " fill="#0000FF"/>
<path class="atom-1" d="M 141.645 157.237 L 142.996 157.237 L 142.996 155.814 L 143.597 155.814 L 143.597 157.237 L 144.984 157.237 L 144.984 157.752 L 143.597 157.752 L 143.597 159.182 L 142.996 159.182 L 142.996 157.752 L 141.645 157.752 L 141.645 157.237 " fill="#0000FF"/>
<path class="atom-2" d="M 162.669 173.037 Q 163.406 173.243, 163.774 173.698 Q 164.153 174.142, 164.153 174.803 Q 164.153 175.864, 163.471 176.471 Q 162.799 177.067, 161.521 177.067 L 158.942 177.067 L 158.942 169.397 L 161.207 169.397 Q 162.517 169.397, 163.178 169.928 Q 163.839 170.458, 163.839 171.433 Q 163.839 172.593, 162.669 173.037 M 159.972 170.263 L 159.972 172.669 L 161.207 172.669 Q 161.965 172.669, 162.355 172.365 Q 162.756 172.051, 162.756 171.433 Q 162.756 170.263, 161.207 170.263 L 159.972 170.263 M 161.521 176.2 Q 162.268 176.2, 162.669 175.843 Q 163.07 175.485, 163.07 174.803 Q 163.07 174.174, 162.626 173.86 Q 162.192 173.535, 161.358 173.535 L 159.972 173.535 L 159.972 176.2 L 161.521 176.2 " fill="#7F4C19"/>
<path class="atom-2" d="M 165.898 171.498 L 166.017 172.268 Q 166.602 171.401, 167.555 171.401 Q 167.858 171.401, 168.27 171.509 L 168.108 172.419 Q 167.642 172.311, 167.382 172.311 Q 166.927 172.311, 166.623 172.495 Q 166.331 172.669, 166.093 173.091 L 166.093 177.067 L 165.074 177.067 L 165.074 171.498 L 165.898 171.498 " fill="#7F4C19"/>
<path d="M 103.744,172.148 L 103.742,172.102 L 103.736,172.056 L 103.726,172.01 L 103.712,171.966 L 103.694,171.923 L 103.673,171.881 L 103.648,171.842 L 103.62,171.804 L 103.589,171.77 L 103.555,171.738 L 103.519,171.709 L 103.48,171.683 L 103.439,171.661 L 103.396,171.643 L 103.352,171.628 L 103.306,171.617 L 103.26,171.61 L 103.214,171.607 L 103.167,171.608 L 103.121,171.613 L 103.075,171.622 L 103.03,171.635 L 102.987,171.651 L 102.945,171.672 L 102.905,171.696 L 102.867,171.723 L 102.832,171.753 L 102.799,171.787 L 102.769,171.823 L 102.743,171.861 L 102.72,171.902 L 102.701,171.944 L 102.685,171.988 L 102.673,172.033 L 102.665,172.079 L 102.661,172.125 L 102.661,172.172 L 102.665,172.218 L 102.673,172.264 L 102.685,172.309 L 102.701,172.353 L 102.72,172.395 L 102.743,172.436 L 102.769,172.474 L 102.799,172.51 L 102.832,172.544 L 102.867,172.574 L 102.905,172.601 L 102.945,172.625 L 102.987,172.646 L 103.03,172.662 L 103.075,172.675 L 103.121,172.684 L 103.167,172.689 L 103.214,172.69 L 103.26,172.687 L 103.306,172.68 L 103.352,172.669 L 103.396,172.654 L 103.439,172.636 L 103.48,172.614 L 103.519,172.588 L 103.555,172.559 L 103.589,172.527 L 103.62,172.493 L 103.648,172.455 L 103.673,172.416 L 103.694,172.374 L 103.712,172.331 L 103.726,172.287 L 103.736,172.241 L 103.742,172.195 L 103.744,172.148 L 103.202,172.148 Z" style="fill:#000000;fill-rule:evenodd;fill-opacity:1;stroke:#000000;stroke-width:0.0px;stroke-linecap:butt;stroke-linejoin:miter;stroke-opacity:1;"/>
<path d="M 103.744,174.315 L 103.742,174.269 L 103.736,174.222 L 103.726,174.177 L 103.712,174.132 L 103.694,174.089 L 103.673,174.048 L 103.648,174.008 L 103.62,173.971 L 103.589,173.936 L 103.555,173.904 L 103.519,173.876 L 103.48,173.85 L 103.439,173.828 L 103.396,173.809 L 103.352,173.795 L 103.306,173.784 L 103.26,173.777 L 103.214,173.774 L 103.167,173.775 L 103.121,173.78 L 103.075,173.789 L 103.03,173.801 L 102.987,173.818 L 102.945,173.839 L 102.905,173.862 L 102.867,173.89 L 102.832,173.92 L 102.799,173.953 L 102.769,173.989 L 102.743,174.028 L 102.72,174.068 L 102.701,174.111 L 102.685,174.154 L 102.673,174.2 L 102.665,174.245 L 102.661,174.292 L 102.661,174.339 L 102.665,174.385 L 102.673,174.431 L 102.685,174.476 L 102.701,174.52 L 102.72,174.562 L 102.743,174.603 L 102.769,174.641 L 102.799,174.677 L 102.832,174.71 L 102.867,174.741 L 102.905,174.768 L 102.945,174.792 L 102.987,174.812 L 103.03,174.829 L 103.075,174.842 L 103.121,174.851 L 103.167,174.856 L 103.214,174.857 L 103.26,174.854 L 103.306,174.847 L 103.352,174.836 L 103.396,174.821 L 103.439,174.803 L 103.48,174.78 L 103.519,174.755 L 103.555,174.726 L 103.589,174.694 L 103.62,174.659 L 103.648,174.622 L 103.673,174.583 L 103.694,174.541 L 103.712,174.498 L 103.726,174.454 L 103.736,174.408 L 103.742,174.362 L 103.744,174.315 L 103.202,174.315 Z" style="fill:#000000;fill-rule:evenodd;fill-opacity:1;stroke:#000000;stroke-width:0.0px;stroke-linecap:butt;stroke-linejoin:miter;stroke-opacity:1;"/>
<path d="M 139.717,155.002 L 139.715,154.955 L 139.709,154.909 L 139.699,154.864 L 139.686,154.819 L 139.668,154.776 L 139.647,154.734 L 139.622,154.695 L 139.594,154.658 L 139.563,154.623 L 139.529,154.591 L 139.492,154.562 L 139.453,154.537 L 139.412,154.515 L 139.37,154.496 L 139.325,154.481 L 139.28,154.47 L 139.234,154.463 L 139.187,154.46 L 139.141,154.461 L 139.094,154.466 L 139.049,154.475 L 139.004,154.488 L 138.96,154.505 L 138.918,154.525 L 138.878,154.549 L 138.841,154.576 L 138.805,154.607 L 138.773,154.64 L 138.743,154.676 L 138.717,154.714 L 138.694,154.755 L 138.674,154.797 L 138.658,154.841 L 138.647,154.886 L 138.639,154.932 L 138.635,154.979 L 138.635,155.025 L 138.639,155.072 L 138.647,155.118 L 138.658,155.163 L 138.674,155.207 L 138.694,155.249 L 138.717,155.289 L 138.743,155.328 L 138.773,155.364 L 138.805,155.397 L 138.841,155.428 L 138.878,155.455 L 138.918,155.479 L 138.96,155.499 L 139.004,155.516 L 139.049,155.529 L 139.094,155.537 L 139.141,155.542 L 139.187,155.543 L 139.234,155.54 L 139.28,155.533 L 139.325,155.523 L 139.37,155.508 L 139.412,155.489 L 139.453,155.467 L 139.492,155.442 L 139.529,155.413 L 139.563,155.381 L 139.594,155.346 L 139.622,155.309 L 139.647,155.269 L 139.668,155.228 L 139.686,155.185 L 139.699,155.14 L 139.709,155.095 L 139.715,155.049 L 139.717,155.002 L 139.176,155.002 Z" style="fill:#000000;fill-rule:evenodd;fill-opacity:1;stroke:#000000;stroke-width:0.0px;stroke-linecap:butt;stroke-linejoin:miter;stroke-opacity:1;"/>
<path d="M 137.551,155.002 L 137.549,154.955 L 137.543,154.909 L 137.533,154.864 L 137.519,154.819 L 137.501,154.776 L 137.48,154.734 L 137.455,154.695 L 137.427,154.658 L 137.396,154.623 L 137.362,154.591 L 137.326,154.562 L 137.287,154.537 L 137.246,154.515 L 137.203,154.496 L 137.159,154.481 L 137.113,154.47 L 137.067,154.463 L 137.021,154.46 L 136.974,154.461 L 136.928,154.466 L 136.882,154.475 L 136.837,154.488 L 136.794,154.505 L 136.752,154.525 L 136.712,154.549 L 136.674,154.576 L 136.639,154.607 L 136.606,154.64 L 136.576,154.676 L 136.55,154.714 L 136.527,154.755 L 136.507,154.797 L 136.492,154.841 L 136.48,154.886 L 136.472,154.932 L 136.468,154.979 L 136.468,155.025 L 136.472,155.072 L 136.48,155.118 L 136.492,155.163 L 136.507,155.207 L 136.527,155.249 L 136.55,155.289 L 136.576,155.328 L 136.606,155.364 L 136.639,155.397 L 136.674,155.428 L 136.712,155.455 L 136.752,155.479 L 136.794,155.499 L 136.837,155.516 L 136.882,155.529 L 136.928,155.537 L 136.974,155.542 L 137.021,155.543 L 137.067,155.54 L 137.113,155.533 L 137.159,155.523 L 137.203,155.508 L 137.246,155.489 L 137.287,155.467 L 137.326,155.442 L 137.362,155.413 L 137.396,155.381 L 137.427,155.346 L 137.455,155.309 L 137.48,155.269 L 137.501,155.228 L 137.519,155.185 L 137.533,155.14 L 137.543,155.095 L 137.549,155.049 L 137.551,155.002 L 137.009,155.002 Z" style="fill:#000000;fill-rule:evenodd;fill-opacity:1;stroke:#000000;stroke-width:0.0px;stroke-linecap:butt;stroke-linejoin:miter;stroke-opacity:1;"/>
<path class="bond-0 atom-0 atom-1" d="M 382.119,168.718 L 390.33,168.718" style="fill:none;fill-rule:evenodd;stroke:#0000FF;stroke-width:2.0px;stroke-linecap:butt;stroke-linejoin:miter;stroke-opacity:1"/>
<path class="bond-0 atom-0 atom-1" d="M 390.33,168.718 L 398.541,168.718" style="fill:none;fill-rule:evenodd;stroke:#7F4C19;stroke-width:2.0px;stroke-linecap:butt;stroke-linejoin:miter;stroke-opacity:1"/>
<path class="atom-0" d="M 360.972 164.883 L 362.012 164.883 L 362.012 168.144 L 365.934 168.144 L 365.934 164.883 L 366.974 164.883 L 366.974 172.553 L 365.934 172.553 L 365.934 169.01 L 362.012 169.01 L 362.012 172.553 L 360.972 172.553 L 360.972 164.883 " fill="#0000FF"/>
<path class="atom-0" d="M 367.346 172.284 Q 367.532 171.805, 367.975 171.54 Q 368.419 171.269, 369.034 171.269 Q 369.799 171.269, 370.228 171.683 Q 370.657 172.098, 370.657 172.834 Q 370.657 173.585, 370.099 174.286 Q 369.548 174.987, 368.404 175.816 L 370.742 175.816 L 370.742 176.388 L 367.332 176.388 L 367.332 175.909 Q 368.276 175.237, 368.833 174.736 Q 369.398 174.236, 369.67 173.785 Q 369.942 173.335, 369.942 172.87 Q 369.942 172.384, 369.698 172.112 Q 369.455 171.841, 369.034 171.841 Q 368.626 171.841, 368.354 172.005 Q 368.083 172.169, 367.889 172.534 L 367.346 172.284 " fill="#0000FF"/>
<path class="atom-0" d="M 372.855 164.883 L 375.368 168.945 Q 375.618 169.346, 376.018 170.072 Q 376.419 170.798, 376.441 170.841 L 376.441 164.883 L 377.459 164.883 L 377.459 172.553 L 376.408 172.553 L 373.711 168.111 Q 373.397 167.591, 373.061 166.995 Q 372.736 166.399, 372.638 166.215 L 372.638 172.553 L 371.642 172.553 L 371.642 164.883 L 372.855 164.883 " fill="#0000FF"/>
<path class="atom-0" d="M 378.103 166.265 L 379.454 166.265 L 379.454 164.842 L 380.055 164.842 L 380.055 166.265 L 381.442 166.265 L 381.442 166.78 L 380.055 166.78 L 380.055 168.21 L 379.454 168.21 L 379.454 166.78 L 378.103 166.78 L 378.103 166.265 " fill="#0000FF"/>
<path class="atom-1" d="M 402.756 168.523 Q 403.492 168.729, 403.861 169.184 Q 404.24 169.628, 404.24 170.289 Q 404.24 171.35, 403.557 171.957 Q 402.886 172.553, 401.607 172.553 L 399.029 172.553 L 399.029 164.883 L 401.293 164.883 Q 402.604 164.883, 403.265 165.414 Q 403.926 165.944, 403.926 166.919 Q 403.926 168.079, 402.756 168.523 M 400.058 165.749 L 400.058 168.155 L 401.293 168.155 Q 402.051 168.155, 402.442 167.851 Q 402.842 167.537, 402.842 166.919 Q 402.842 165.749, 401.293 165.749 L 400.058 165.749 M 401.607 171.686 Q 402.355 171.686, 402.756 171.329 Q 403.157 170.971, 403.157 170.289 Q 403.157 169.66, 402.712 169.346 Q 402.279 169.021, 401.445 169.021 L 400.058 169.021 L 400.058 171.686 L 401.607 171.686 " fill="#7F4C19"/>
<path class="atom-1" d="M 405.984 166.984 L 406.103 167.754 Q 406.688 166.887, 407.642 166.887 Q 407.945 166.887, 408.357 166.995 L 408.194 167.905 Q 407.728 167.797, 407.468 167.797 Q 407.013 167.797, 406.71 167.981 Q 406.417 168.155, 406.179 168.577 L 406.179 172.553 L 405.161 172.553 L 405.161 166.984 L 405.984 166.984 " fill="#7F4C19"/>
<path d="M 359.889,168.718 L 359.887,168.671 L 359.881,168.625 L 359.871,168.58 L 359.857,168.535 L 359.84,168.492 L 359.818,168.45 L 359.794,168.411 L 359.766,168.374 L 359.735,168.339 L 359.701,168.307 L 359.664,168.278 L 359.625,168.253 L 359.584,168.231 L 359.541,168.212 L 359.497,168.197 L 359.452,168.186 L 359.406,168.179 L 359.359,168.176 L 359.312,168.177 L 359.266,168.182 L 359.22,168.191 L 359.176,168.204 L 359.132,168.221 L 359.09,168.241 L 359.05,168.265 L 359.012,168.292 L 358.977,168.323 L 358.944,168.356 L 358.915,168.392 L 358.888,168.43 L 358.865,168.471 L 358.846,168.513 L 358.83,168.557 L 358.818,168.602 L 358.81,168.648 L 358.806,168.695 L 358.806,168.741 L 358.81,168.788 L 358.818,168.834 L 358.83,168.879 L 358.846,168.922 L 358.865,168.965 L 358.888,169.005 L 358.915,169.044 L 358.944,169.08 L 358.977,169.113 L 359.012,169.143 L 359.05,169.171 L 359.09,169.195 L 359.132,169.215 L 359.176,169.232 L 359.22,169.244 L 359.266,169.253 L 359.312,169.258 L 359.359,169.259 L 359.406,169.256 L 359.452,169.249 L 359.497,169.238 L 359.541,169.224 L 359.584,169.205 L 359.625,169.183 L 359.664,169.157 L 359.701,169.129 L 359.735,169.097 L 359.766,169.062 L 359.794,169.025 L 359.818,168.985 L 359.84,168.944 L 359.857,168.901 L 359.871,168.856 L 359.881,168.811 L 359.887,168.764 L 359.889,168.718 L 359.347,168.718 Z" style="fill:#000000;fill-rule:evenodd;fill-opacity:1;stroke:#000000;stroke-width:0.0px;stroke-linecap:butt;stroke-linejoin:miter;stroke-opacity:1;"/>
<path class="bond-0 atom-0 atom-1" d="M 682.046,165.009 L 671.797,170.926" style="fill:none;fill-rule:evenodd;stroke:#33CCCC;stroke-width:2.0px;stroke-linecap:butt;stroke-linejoin:miter;stroke-opacity:1"/>
<path class="bond-0 atom-0 atom-1" d="M 671.797,170.926 L 661.548,176.843" style="fill:none;fill-rule:evenodd;stroke:#000000;stroke-width:2.0px;stroke-linecap:butt;stroke-linejoin:miter;stroke-opacity:1"/>
<path class="bond-1 atom-1 atom-2" d="M 661.548,176.843 L 651.383,170.974" style="fill:none;fill-rule:evenodd;stroke:#000000;stroke-width:2.0px;stroke-linecap:butt;stroke-linejoin:miter;stroke-opacity:1"/>
<path class="bond-1 atom-1 atom-2" d="M 651.383,170.974 L 641.218,165.106" style="fill:none;fill-rule:evenodd;stroke:#FF7F00;stroke-width:2.0px;stroke-linecap:butt;stroke-linejoin:miter;stroke-opacity:1"/>
<path class="bond-2 atom-2 atom-3" d="M 634.967,165.106 L 617.672,175.091" style="fill:none;fill-rule:evenodd;stroke:#FF7F00;stroke-width:2.0px;stroke-linecap:butt;stroke-linejoin:miter;stroke-opacity:1"/>
<path class="bond-2 atom-2 atom-3" d="M 635.081,171.294 L 622.975,178.284" style="fill:none;fill-rule:evenodd;stroke:#FF7F00;stroke-width:2.0px;stroke-linecap:butt;stroke-linejoin:miter;stroke-opacity:1"/>
<path class="bond-3 atom-3 atom-4" d="M 611.511,175.039 L 601.897,169.488" style="fill:none;fill-rule:evenodd;stroke:#FF7F00;stroke-width:2.0px;stroke-linecap:butt;stroke-linejoin:miter;stroke-opacity:1"/>
<path class="bond-3 atom-3 atom-4" d="M 601.897,169.488 L 592.283,163.937" style="fill:none;fill-rule:evenodd;stroke:#A01EEF;stroke-width:2.0px;stroke-linecap:butt;stroke-linejoin:miter;stroke-opacity:1"/>
<path class="atom-0" d="M 682.723 159.466 L 687.284 159.466 L 687.284 160.343 L 683.752 160.343 L 683.752 162.673 L 686.894 162.673 L 686.894 163.561 L 683.752 163.561 L 683.752 167.136 L 682.723 167.136 L 682.723 159.466 " fill="#33CCCC"/>
<path class="atom-2" d="M 637.908 159.466 Q 639.219 159.466, 639.88 160.062 Q 640.541 160.647, 640.541 161.719 Q 640.541 162.781, 639.858 163.388 Q 639.187 163.984, 637.908 163.984 L 636.684 163.984 L 636.684 167.136 L 635.644 167.136 L 635.644 159.466 L 637.908 159.466 M 637.908 163.117 Q 638.656 163.117, 639.057 162.759 Q 639.457 162.402, 639.457 161.719 Q 639.457 161.037, 639.057 160.69 Q 638.667 160.333, 637.908 160.333 L 636.684 160.333 L 636.684 163.117 L 637.908 163.117 " fill="#FF7F00"/>
<path class="atom-2" d="M 635.091 151.029 L 636.132 151.029 L 636.132 154.29 L 640.053 154.29 L 640.053 151.029 L 641.093 151.029 L 641.093 158.699 L 640.053 158.699 L 640.053 155.156 L 636.132 155.156 L 636.132 158.699 L 635.091 158.699 L 635.091 151.029 " fill="#FF7F00"/>
<path class="atom-3" d="M 614.453 173.008 Q 615.764 173.008, 616.425 173.604 Q 617.085 174.189, 617.085 175.261 Q 617.085 176.323, 616.403 176.93 Q 615.731 177.526, 614.453 177.526 L 613.229 177.526 L 613.229 180.678 L 612.189 180.678 L 612.189 173.008 L 614.453 173.008 M 614.453 176.659 Q 615.2 176.659, 615.601 176.301 Q 616.002 175.944, 616.002 175.261 Q 616.002 174.579, 615.601 174.232 Q 615.211 173.875, 614.453 173.875 L 613.229 173.875 L 613.229 176.659 L 614.453 176.659 " fill="#FF7F00"/>
<path class="atom-4" d="M 590.667 159.45 L 591.696 159.45 L 591.696 167.152 L 590.667 167.152 L 590.667 159.45 " fill="#A01EEF"/>
<path d="M 662.09,179.281 L 662.088,179.234 L 662.082,179.188 L 662.072,179.142 L 662.058,179.098 L 662.04,179.055 L 662.019,179.013 L 661.994,178.974 L 661.966,178.936 L 661.935,178.902 L 661.901,178.87 L 661.864,178.841 L 661.825,178.815 L 661.784,178.793 L 661.742,178.775 L 661.697,178.76 L 661.652,178.749 L 661.606,178.742 L 661.559,178.739 L 661.513,178.74 L 661.467,178.745 L 661.421,178.754 L 661.376,178.767 L 661.332,178.784 L 661.291,178.804 L 661.251,178.828 L 661.213,178.855 L 661.177,178.885 L 661.145,178.919 L 661.115,178.955 L 661.089,178.993 L 661.066,179.034 L 661.046,179.076 L 661.031,179.12 L 661.019,179.165 L 661.011,179.211 L 661.007,179.257 L 661.007,179.304 L 661.011,179.35 L 661.019,179.396 L 661.031,179.441 L 661.046,179.485 L 661.066,179.528 L 661.089,179.568 L 661.115,179.606 L 661.145,179.642 L 661.177,179.676 L 661.213,179.706 L 661.251,179.733 L 661.291,179.757 L 661.332,179.778 L 661.376,179.794 L 661.421,179.807 L 661.467,179.816 L 661.513,179.821 L 661.559,179.822 L 661.606,179.819 L 661.652,179.812 L 661.697,179.801 L 661.742,179.786 L 661.784,179.768 L 661.825,179.746 L 661.864,179.72 L 661.901,179.691 L 661.935,179.659 L 661.966,179.625 L 661.994,179.588 L 662.019,179.548 L 662.04,179.507 L 662.058,179.463 L 662.072,179.419 L 662.082,179.373 L 662.088,179.327 L 662.09,179.281 L 661.548,179.281 Z" style="fill:#000000;fill-rule:evenodd;fill-opacity:1;stroke:#000000;stroke-width:0.0px;stroke-linecap:butt;stroke-linejoin:miter;stroke-opacity:1;"/>
<path d="M 638.634,150.216 L 638.632,150.17 L 638.626,150.123 L 638.616,150.078 L 638.602,150.033 L 638.585,149.99 L 638.563,149.949 L 638.539,149.909 L 638.511,149.872 L 638.48,149.837 L 638.446,149.805 L 638.409,149.777 L 638.37,149.751 L 638.329,149.729 L 638.286,149.71 L 638.242,149.696 L 638.197,149.685 L 638.151,149.678 L 638.104,149.675 L 638.057,149.676 L 638.011,149.681 L 637.965,149.69 L 637.921,149.703 L 637.877,149.719 L 637.835,149.74 L 637.795,149.763 L 637.757,149.791 L 637.722,149.821 L 637.689,149.854 L 637.66,149.89 L 637.633,149.929 L 637.61,149.969 L 637.591,150.012 L 637.575,150.056 L 637.563,150.101 L 637.555,150.146 L 637.551,150.193 L 637.551,150.24 L 637.555,150.286 L 637.563,150.332 L 637.575,150.377 L 637.591,150.421 L 637.61,150.463 L 637.633,150.504 L 637.66,150.542 L 637.689,150.578 L 637.722,150.611 L 637.757,150.642 L 637.795,150.669 L 637.835,150.693 L 637.877,150.713 L 637.921,150.73 L 637.965,150.743 L 638.011,150.752 L 638.057,150.757 L 638.104,150.758 L 638.151,150.755 L 638.197,150.748 L 638.242,150.737 L 638.286,150.722 L 638.329,150.704 L 638.37,150.681 L 638.409,150.656 L 638.446,150.627 L 638.48,150.595 L 638.511,150.56 L 638.539,150.523 L 638.563,150.484 L 638.585,150.442 L 638.602,150.399 L 638.616,150.355 L 638.626,150.309 L 638.632,150.263 L 638.634,150.216 L 638.092,150.216 Z" style="fill:#000000;fill-rule:evenodd;fill-opacity:1;stroke:#000000;stroke-width:0.0px;stroke-linecap:butt;stroke-linejoin:miter;stroke-opacity:1;"/>
<path class="bond-0 atom-0 atom-1" d="M 180.805,421.711 L 165.625,412.946" style="fill:none;fill-rule:evenodd;stroke:#FF0000;stroke-width:2.0px;stroke-linecap:butt;stroke-linejoin:miter;stroke-opacity:1"/>
<path class="bond-1 atom-1 atom-2" d="M 157.35,413.016 L 151.215,416.559" style="fill:none;fill-rule:evenodd;stroke:#FF0000;stroke-width:2.0px;stroke-linecap:butt;stroke-linejoin:miter;stroke-opacity:1"/>
<path class="bond-1 atom-1 atom-2" d="M 151.215,416.559 L 145.079,420.101" style="fill:none;fill-rule:evenodd;stroke:#FF7F00;stroke-width:2.0px;stroke-linecap:butt;stroke-linejoin:miter;stroke-opacity:1"/>
<path class="bond-2 atom-2 atom-3" d="M 134.967,422.33 L 126.55,417.471" style="fill:none;fill-rule:evenodd;stroke:#FF7F00;stroke-width:2.0px;stroke-linecap:butt;stroke-linejoin:miter;stroke-opacity:1"/>
<path class="bond-2 atom-2 atom-3" d="M 126.55,417.471 L 118.133,412.611" style="fill:none;fill-rule:evenodd;stroke:#0000FF;stroke-width:2.0px;stroke-linecap:butt;stroke-linejoin:miter;stroke-opacity:1"/>
<path class="bond-3 atom-3 atom-4" d="M 111.051,412.663 L 96.621,420.994" style="fill:none;fill-rule:evenodd;stroke:#0000FF;stroke-width:2.0px;stroke-linecap:butt;stroke-linejoin:miter;stroke-opacity:1"/>
<path class="atom-0" d="M 181.482 424.156 Q 181.482 422.315, 182.392 421.285 Q 183.302 420.256, 185.003 420.256 Q 186.704 420.256, 187.614 421.285 Q 188.524 422.315, 188.524 424.156 Q 188.524 426.02, 187.603 427.081 Q 186.682 428.132, 185.003 428.132 Q 183.313 428.132, 182.392 427.081 Q 181.482 426.031, 181.482 424.156 M 185.003 427.266 Q 186.173 427.266, 186.802 426.486 Q 187.441 425.695, 187.441 424.156 Q 187.441 422.65, 186.802 421.892 Q 186.173 421.123, 185.003 421.123 Q 183.833 421.123, 183.194 421.881 Q 182.566 422.64, 182.566 424.156 Q 182.566 425.706, 183.194 426.486 Q 183.833 427.266, 185.003 427.266 " fill="#FF0000"/>
<path class="atom-0" d="M 189.445 420.343 L 190.485 420.343 L 190.485 423.604 L 194.407 423.604 L 194.407 420.343 L 195.447 420.343 L 195.447 428.013 L 194.407 428.013 L 194.407 424.47 L 190.485 424.47 L 190.485 428.013 L 189.445 428.013 L 189.445 420.343 " fill="#FF0000"/>
<path class="atom-1" d="M 158.027 410.614 Q 158.027 408.773, 158.937 407.743 Q 159.847 406.714, 161.548 406.714 Q 163.249 406.714, 164.159 407.743 Q 165.069 408.773, 165.069 410.614 Q 165.069 412.478, 164.148 413.539 Q 163.227 414.59, 161.548 414.59 Q 159.858 414.59, 158.937 413.539 Q 158.027 412.489, 158.027 410.614 M 161.548 413.724 Q 162.718 413.724, 163.346 412.944 Q 163.985 412.153, 163.985 410.614 Q 163.985 409.108, 163.346 408.35 Q 162.718 407.581, 161.548 407.581 Q 160.378 407.581, 159.739 408.339 Q 159.11 409.098, 159.11 410.614 Q 159.11 412.164, 159.739 412.944 Q 160.378 413.724, 161.548 413.724 " fill="#FF0000"/>
<path class="atom-1" d="M 165.712 408.081 L 167.064 408.081 L 167.064 406.658 L 167.664 406.658 L 167.664 408.081 L 169.051 408.081 L 169.051 408.595 L 167.664 408.595 L 167.664 410.025 L 167.064 410.025 L 167.064 408.595 L 165.712 408.595 L 165.712 408.081 " fill="#FF0000"/>
<path class="atom-2" d="M 137.908 420.3 Q 139.219 420.3, 139.88 420.895 Q 140.541 421.48, 140.541 422.553 Q 140.541 423.615, 139.858 424.221 Q 139.187 424.817, 137.908 424.817 L 136.684 424.817 L 136.684 427.97 L 135.644 427.97 L 135.644 420.3 L 137.908 420.3 M 137.908 423.95 Q 138.656 423.95, 139.057 423.593 Q 139.457 423.235, 139.457 422.553 Q 139.457 421.87, 139.057 421.524 Q 138.667 421.166, 137.908 421.166 L 136.684 421.166 L 136.684 423.95 L 137.908 423.95 " fill="#FF7F00"/>
<path class="atom-2" d="M 141.184 421.682 L 142.536 421.682 L 142.536 420.259 L 143.136 420.259 L 143.136 421.682 L 144.523 421.682 L 144.523 422.197 L 143.136 422.197 L 143.136 423.627 L 142.536 423.627 L 142.536 422.197 L 141.184 422.197 L 141.184 421.682 " fill="#FF7F00"/>
<path class="atom-3" d="M 112.942 406.758 L 115.455 410.82 Q 115.704 411.221, 116.105 411.947 Q 116.506 412.673, 116.527 412.716 L 116.527 406.758 L 117.546 406.758 L 117.546 414.428 L 116.495 414.428 L 113.797 409.986 Q 113.483 409.466, 113.147 408.87 Q 112.822 408.274, 112.725 408.09 L 112.725 414.428 L 111.728 414.428 L 111.728 406.758 L 112.942 406.758 " fill="#0000FF"/>
<path class="atom-3" d="M 118.189 408.14 L 119.541 408.14 L 119.541 406.717 L 120.141 406.717 L 120.141 408.14 L 121.528 408.14 L 121.528 408.655 L 120.141 408.655 L 120.141 410.085 L 119.541 410.085 L 119.541 408.655 L 118.189 408.655 L 118.189 408.14 " fill="#0000FF"/>
<path class="atom-4" d="M 81.3717 420.3 L 82.4117 420.3 L 82.4117 423.56 L 86.3335 423.56 L 86.3335 420.3 L 87.3735 420.3 L 87.3735 427.97 L 86.3335 427.97 L 86.3335 424.427 L 82.4117 424.427 L 82.4117 427.97 L 81.3717 427.97 L 81.3717 420.3 " fill="#0000FF"/>
<path class="atom-4" d="M 89.4861 420.3 L 91.9995 424.362 Q 92.2487 424.763, 92.6495 425.489 Q 93.0503 426.215, 93.072 426.258 L 93.072 420.3 L 94.0904 420.3 L 94.0904 427.97 L 93.0395 427.97 L 90.3419 423.528 Q 90.0278 423.008, 89.6919 422.412 Q 89.3669 421.816, 89.2694 421.632 L 89.2694 427.97 L 88.2727 427.97 L 88.2727 420.3 L 89.4861 420.3 " fill="#0000FF"/>
<path class="atom-4" d="M 94.4479 421.568 L 97.072 421.568 L 97.072 422.14 L 94.4479 422.14 L 94.4479 421.568 " fill="#0000FF"/>
<path d="M 162.09,405.845 L 162.088,405.799 L 162.082,405.752 L 162.072,405.707 L 162.058,405.662 L 162.04,405.619 L 162.019,405.578 L 161.994,405.538 L 161.966,405.501 L 161.935,405.466 L 161.901,405.434 L 161.864,405.406 L 161.825,405.38 L 161.784,405.358 L 161.742,405.339 L 161.697,405.325 L 161.652,405.314 L 161.606,405.307 L 161.559,405.304 L 161.513,405.305 L 161.467,405.31 L 161.421,405.319 L 161.376,405.331 L 161.332,405.348 L 161.291,405.368 L 161.251,405.392 L 161.213,405.42 L 161.177,405.45 L 161.145,405.483 L 161.115,405.519 L 161.089,405.558 L 161.066,405.598 L 161.046,405.641 L 161.031,405.684 L 161.019,405.729 L 161.011,405.775 L 161.007,405.822 L 161.007,405.868 L 161.011,405.915 L 161.019,405.961 L 161.031,406.006 L 161.046,406.05 L 161.066,406.092 L 161.089,406.133 L 161.115,406.171 L 161.145,406.207 L 161.177,406.24 L 161.213,406.271 L 161.251,406.298 L 161.291,406.322 L 161.332,406.342 L 161.376,406.359 L 161.421,406.372 L 161.467,406.381 L 161.513,406.386 L 161.559,406.387 L 161.606,406.384 L 161.652,406.377 L 161.697,406.366 L 161.742,406.351 L 161.784,406.332 L 161.825,406.31 L 161.864,406.285 L 161.901,406.256 L 161.935,406.224 L 161.966,406.189 L 161.994,406.152 L 162.019,406.113 L 162.04,406.071 L 162.058,406.028 L 162.072,405.983 L 162.082,405.938 L 162.088,405.892 L 162.09,405.845 L 161.548,405.845 Z" style="fill:#000000;fill-rule:evenodd;fill-opacity:1;stroke:#000000;stroke-width:0.0px;stroke-linecap:butt;stroke-linejoin:miter;stroke-opacity:1;"/>
<path d="M 139.717,428.782 L 139.715,428.736 L 139.709,428.689 L 139.699,428.644 L 139.686,428.599 L 139.668,428.556 L 139.647,428.515 L 139.622,428.475 L 139.594,428.438 L 139.563,428.403 L 139.529,428.372 L 139.492,428.343 L 139.453,428.317 L 139.412,428.295 L 139.37,428.276 L 139.325,428.262 L 139.28,428.251 L 139.234,428.244 L 139.187,428.241 L 139.141,428.242 L 139.094,428.247 L 139.049,428.256 L 139.004,428.269 L 138.96,428.285 L 138.918,428.306 L 138.878,428.329 L 138.841,428.357 L 138.805,428.387 L 138.773,428.42 L 138.743,428.456 L 138.717,428.495 L 138.694,428.535 L 138.674,428.578 L 138.658,428.622 L 138.647,428.667 L 138.639,428.713 L 138.635,428.759 L 138.635,428.806 L 138.639,428.852 L 138.647,428.898 L 138.658,428.943 L 138.674,428.987 L 138.694,429.029 L 138.717,429.07 L 138.743,429.108 L 138.773,429.144 L 138.805,429.177 L 138.841,429.208 L 138.878,429.235 L 138.918,429.259 L 138.96,429.279 L 139.004,429.296 L 139.049,429.309 L 139.094,429.318 L 139.141,429.323 L 139.187,429.324 L 139.234,429.321 L 139.28,429.314 L 139.325,429.303 L 139.37,429.288 L 139.412,429.27 L 139.453,429.247 L 139.492,429.222 L 139.529,429.193 L 139.563,429.161 L 139.594,429.126 L 139.622,429.089 L 139.647,429.05 L 139.668,429.008 L 139.686,428.965 L 139.699,428.921 L 139.709,428.875 L 139.715,428.829 L 139.717,428.782 L 139.176,428.782 Z" style="fill:#000000;fill-rule:evenodd;fill-opacity:1;stroke:#000000;stroke-width:0.0px;stroke-linecap:butt;stroke-linejoin:miter;stroke-opacity:1;"/>
<path d="M 137.551,428.782 L 137.549,428.736 L 137.543,428.689 L 137.533,428.644 L 137.519,428.599 L 137.501,428.556 L 137.48,428.515 L 137.455,428.475 L 137.427,428.438 L 137.396,428.403 L 137.362,428.372 L 137.326,428.343 L 137.287,428.317 L 137.246,428.295 L 137.203,428.276 L 137.159,428.262 L 137.113,428.251 L 137.067,428.244 L 137.021,428.241 L 136.974,428.242 L 136.928,428.247 L 136.882,428.256 L 136.837,428.269 L 136.794,428.285 L 136.752,428.306 L 136.712,428.329 L 136.674,428.357 L 136.639,428.387 L 136.606,428.42 L 136.576,428.456 L 136.55,428.495 L 136.527,428.535 L 136.507,428.578 L 136.492,428.622 L 136.48,428.667 L 136.472,428.713 L 136.468,428.759 L 136.468,428.806 L 136.472,428.852 L 136.48,428.898 L 136.492,428.943 L 136.507,428.987 L 136.527,429.029 L 136.55,429.07 L 136.576,429.108 L 136.606,429.144 L 136.639,429.177 L 136.674,429.208 L 136.712,429.235 L 136.752,429.259 L 136.794,429.279 L 136.837,429.296 L 136.882,429.309 L 136.928,429.318 L 136.974,429.323 L 137.021,429.324 L 137.067,429.321 L 137.113,429.314 L 137.159,429.303 L 137.203,429.288 L 137.246,429.27 L 137.287,429.247 L 137.326,429.222 L 137.362,429.193 L 137.396,429.161 L 137.427,429.126 L 137.455,429.089 L 137.48,429.05 L 137.501,429.008 L 137.519,428.965 L 137.533,428.921 L 137.543,428.875 L 137.549,428.829 L 137.551,428.782 L 137.009,428.782 Z" style="fill:#000000;fill-rule:evenodd;fill-opacity:1;stroke:#000000;stroke-width:0.0px;stroke-linecap:butt;stroke-linejoin:miter;stroke-opacity:1;"/>
<path d="M 116.262,405.905 L 116.26,405.858 L 116.254,405.812 L 116.244,405.766 L 116.23,405.722 L 116.213,405.679 L 116.191,405.637 L 116.167,405.598 L 116.139,405.561 L 116.107,405.526 L 116.073,405.494 L 116.037,405.465 L 115.998,405.44 L 115.957,405.417 L 115.914,405.399 L 115.87,405.384 L 115.825,405.373 L 115.779,405.366 L 115.732,405.363 L 115.685,405.364 L 115.639,405.369 L 115.593,405.378 L 115.549,405.391 L 115.505,405.408 L 115.463,405.428 L 115.423,405.452 L 115.385,405.479 L 115.35,405.51 L 115.317,405.543 L 115.288,405.579 L 115.261,405.617 L 115.238,405.658 L 115.219,405.7 L 115.203,405.744 L 115.191,405.789 L 115.183,405.835 L 115.179,405.881 L 115.179,405.928 L 115.183,405.974 L 115.191,406.02 L 115.203,406.065 L 115.219,406.109 L 115.238,406.152 L 115.261,406.192 L 115.288,406.231 L 115.317,406.267 L 115.35,406.3 L 115.385,406.33 L 115.423,406.358 L 115.463,406.381 L 115.505,406.402 L 115.549,406.418 L 115.593,406.431 L 115.639,406.44 L 115.685,406.445 L 115.732,406.446 L 115.779,406.443 L 115.825,406.436 L 115.87,406.425 L 115.914,406.411 L 115.957,406.392 L 115.998,406.37 L 116.037,406.344 L 116.073,406.315 L 116.107,406.284 L 116.139,406.249 L 116.167,406.212 L 116.191,406.172 L 116.213,406.131 L 116.23,406.088 L 116.244,406.043 L 116.254,405.998 L 116.26,405.951 L 116.262,405.905 L 115.72,405.905 Z" style="fill:#000000;fill-rule:evenodd;fill-opacity:1;stroke:#000000;stroke-width:0.0px;stroke-linecap:butt;stroke-linejoin:miter;stroke-opacity:1;"/>
<path d="M 114.095,405.905 L 114.093,405.858 L 114.087,405.812 L 114.077,405.766 L 114.064,405.722 L 114.046,405.679 L 114.025,405.637 L 114,405.598 L 113.972,405.561 L 113.941,405.526 L 113.907,405.494 L 113.87,405.465 L 113.831,405.44 L 113.79,405.417 L 113.747,405.399 L 113.703,405.384 L 113.658,405.373 L 113.612,405.366 L 113.565,405.363 L 113.519,405.364 L 113.472,405.369 L 113.427,405.378 L 113.382,405.391 L 113.338,405.408 L 113.296,405.428 L 113.256,405.452 L 113.218,405.479 L 113.183,405.51 L 113.151,405.543 L 113.121,405.579 L 113.095,405.617 L 113.072,405.658 L 113.052,405.7 L 113.036,405.744 L 113.024,405.789 L 113.016,405.835 L 113.012,405.881 L 113.012,405.928 L 113.016,405.974 L 113.024,406.02 L 113.036,406.065 L 113.052,406.109 L 113.072,406.152 L 113.095,406.192 L 113.121,406.231 L 113.151,406.267 L 113.183,406.3 L 113.218,406.33 L 113.256,406.358 L 113.296,406.381 L 113.338,406.402 L 113.382,406.418 L 113.427,406.431 L 113.472,406.44 L 113.519,406.445 L 113.565,406.446 L 113.612,406.443 L 113.658,406.436 L 113.703,406.425 L 113.747,406.411 L 113.79,406.392 L 113.831,406.37 L 113.87,406.344 L 113.907,406.315 L 113.941,406.284 L 113.972,406.249 L 114,406.212 L 114.025,406.172 L 114.046,406.131 L 114.064,406.088 L 114.077,406.043 L 114.087,405.998 L 114.093,405.951 L 114.095,405.905 L 113.554,405.905 Z" style="fill:#000000;fill-rule:evenodd;fill-opacity:1;stroke:#000000;stroke-width:0.0px;stroke-linecap:butt;stroke-linejoin:miter;stroke-opacity:1;"/>
<path class="bond-0 atom-0 atom-1" d="M 353.517,417.738 L 372.476,423.165" style="fill:none;fill-rule:evenodd;stroke:#0000FF;stroke-width:2.0px;stroke-linecap:butt;stroke-linejoin:miter;stroke-opacity:1"/>
<path class="bond-0 atom-0 atom-1" d="M 355.007,412.53 L 373.967,417.957" style="fill:none;fill-rule:evenodd;stroke:#0000FF;stroke-width:2.0px;stroke-linecap:butt;stroke-linejoin:miter;stroke-opacity:1"/>
<path class="bond-1 atom-1 atom-2" d="M 379.555,425.191 L 389.26,427.968" style="fill:none;fill-rule:evenodd;stroke:#0000FF;stroke-width:2.0px;stroke-linecap:butt;stroke-linejoin:miter;stroke-opacity:1"/>
<path class="bond-1 atom-1 atom-2" d="M 389.26,427.968 L 398.964,430.746" style="fill:none;fill-rule:evenodd;stroke:#CCCC00;stroke-width:2.0px;stroke-linecap:butt;stroke-linejoin:miter;stroke-opacity:1"/>
<path class="bond-1 atom-1 atom-2" d="M 381.046,419.983 L 390.75,422.761" style="fill:none;fill-rule:evenodd;stroke:#0000FF;stroke-width:2.0px;stroke-linecap:butt;stroke-linejoin:miter;stroke-opacity:1"/>
<path class="bond-1 atom-1 atom-2" d="M 390.75,422.761 L 400.455,425.539" style="fill:none;fill-rule:evenodd;stroke:#CCCC00;stroke-width:2.0px;stroke-linecap:butt;stroke-linejoin:miter;stroke-opacity:1"/>
<path class="bond-2 atom-2 atom-3" d="M 407.771,427.929 L 414.202,421.714" style="fill:none;fill-rule:evenodd;stroke:#CCCC00;stroke-width:2.0px;stroke-linecap:butt;stroke-linejoin:miter;stroke-opacity:1"/>
<path class="bond-2 atom-2 atom-3" d="M 414.202,421.714 L 420.632,415.498" style="fill:none;fill-rule:evenodd;stroke:#0000FF;stroke-width:2.0px;stroke-linecap:butt;stroke-linejoin:miter;stroke-opacity:1"/>
<path class="bond-2 atom-2 atom-3" d="M 404.007,424.034 L 410.437,417.819" style="fill:none;fill-rule:evenodd;stroke:#CCCC00;stroke-width:2.0px;stroke-linecap:butt;stroke-linejoin:miter;stroke-opacity:1"/>
<path class="bond-2 atom-2 atom-3" d="M 410.437,417.819 L 416.867,411.603" style="fill:none;fill-rule:evenodd;stroke:#0000FF;stroke-width:2.0px;stroke-linecap:butt;stroke-linejoin:miter;stroke-opacity:1"/>
<path class="atom-0" d="M 337.098 410.273 L 338.138 410.273 L 338.138 413.533 L 342.06 413.533 L 342.06 410.273 L 343.1 410.273 L 343.1 417.943 L 342.06 417.943 L 342.06 414.4 L 338.138 414.4 L 338.138 417.943 L 337.098 417.943 L 337.098 410.273 " fill="#0000FF"/>
<path class="atom-0" d="M 343.472 417.674 Q 343.658 417.195, 344.101 416.93 Q 344.544 416.658, 345.159 416.658 Q 345.924 416.658, 346.353 417.073 Q 346.782 417.488, 346.782 418.224 Q 346.782 418.975, 346.225 419.676 Q 345.674 420.376, 344.53 421.206 L 346.868 421.206 L 346.868 421.778 L 343.457 421.778 L 343.457 421.299 Q 344.401 420.627, 344.959 420.126 Q 345.524 419.626, 345.795 419.175 Q 346.067 418.725, 346.067 418.26 Q 346.067 417.774, 345.824 417.502 Q 345.581 417.23, 345.159 417.23 Q 344.752 417.23, 344.48 417.395 Q 344.208 417.559, 344.015 417.924 L 343.472 417.674 " fill="#0000FF"/>
<path class="atom-0" d="M 348.981 410.273 L 351.494 414.335 Q 351.743 414.736, 352.144 415.462 Q 352.545 416.188, 352.566 416.231 L 352.566 410.273 L 353.585 410.273 L 353.585 417.943 L 352.534 417.943 L 349.836 413.501 Q 349.522 412.981, 349.186 412.385 Q 348.861 411.789, 348.764 411.605 L 348.764 417.943 L 347.767 417.943 L 347.767 410.273 L 348.981 410.273 " fill="#0000FF"/>
<path class="atom-0" d="M 354.228 411.655 L 355.58 411.655 L 355.58 410.232 L 356.18 410.232 L 356.18 411.655 L 357.568 411.655 L 357.568 412.17 L 356.18 412.17 L 356.18 413.6 L 355.58 413.6 L 355.58 412.17 L 354.228 412.17 L 354.228 411.655 " fill="#0000FF"/>
<path class="atom-1" d="M 375.019 417.725 L 377.532 421.788 Q 377.782 422.189, 378.182 422.915 Q 378.583 423.641, 378.605 423.684 L 378.605 417.725 L 379.623 417.725 L 379.623 425.396 L 378.572 425.396 L 375.875 420.954 Q 375.561 420.434, 375.225 419.838 Q 374.9 419.242, 374.802 419.058 L 374.802 425.396 L 373.806 425.396 L 373.806 417.725 L 375.019 417.725 " fill="#0000FF"/>
<path class="atom-1" d="M 380.267 419.108 L 381.618 419.108 L 381.618 417.685 L 382.219 417.685 L 382.219 419.108 L 383.606 419.108 L 383.606 419.623 L 382.219 419.623 L 382.219 421.053 L 381.618 421.053 L 381.618 419.623 L 380.267 419.623 L 380.267 419.108 " fill="#0000FF"/>
<path class="atom-2" d="M 400.586 431.646 Q 400.673 431.678, 401.03 431.83 Q 401.388 431.982, 401.778 432.079 Q 402.179 432.166, 402.569 432.166 Q 403.294 432.166, 403.717 431.819 Q 404.139 431.462, 404.139 430.844 Q 404.139 430.422, 403.923 430.162 Q 403.717 429.902, 403.392 429.761 Q 403.067 429.62, 402.525 429.458 Q 401.843 429.252, 401.431 429.057 Q 401.03 428.862, 400.738 428.45 Q 400.456 428.038, 400.456 427.345 Q 400.456 426.381, 401.106 425.785 Q 401.767 425.189, 403.067 425.189 Q 403.955 425.189, 404.963 425.612 L 404.714 426.446 Q 403.793 426.067, 403.099 426.067 Q 402.352 426.067, 401.94 426.381 Q 401.529 426.684, 401.539 427.215 Q 401.539 427.627, 401.745 427.876 Q 401.962 428.125, 402.265 428.266 Q 402.579 428.407, 403.099 428.569 Q 403.793 428.786, 404.204 429.003 Q 404.616 429.219, 404.909 429.663 Q 405.212 430.097, 405.212 430.844 Q 405.212 431.906, 404.497 432.48 Q 403.793 433.043, 402.612 433.043 Q 401.929 433.043, 401.409 432.892 Q 400.9 432.751, 400.294 432.502 L 400.586 431.646 " fill="#CCCC00"/>
<path class="atom-3" d="M 420.531 406.355 L 423.044 410.417 Q 423.293 410.818, 423.694 411.544 Q 424.095 412.27, 424.117 412.313 L 424.117 406.355 L 425.135 406.355 L 425.135 414.025 L 424.084 414.025 L 421.387 409.583 Q 421.073 409.063, 420.737 408.467 Q 420.412 407.872, 420.314 407.687 L 420.314 414.025 L 419.318 414.025 L 419.318 406.355 L 420.531 406.355 " fill="#0000FF"/>
<path class="atom-3" d="M 425.493 407.623 L 428.117 407.623 L 428.117 408.195 L 425.493 408.195 L 425.493 407.623 " fill="#0000FF"/>
<path class="atom-0" d="M 636.397 414.883 L 638.91 418.945 Q 639.16 419.346, 639.56 420.072 Q 639.961 420.798, 639.983 420.841 L 639.983 414.883 L 641.001 414.883 L 641.001 422.553 L 639.95 422.553 L 637.253 418.111 Q 636.939 417.591, 636.603 416.995 Q 636.278 416.399, 636.18 416.215 L 636.18 422.553 L 635.184 422.553 L 635.184 414.883 L 636.397 414.883 " fill="#0000FF"/>
<path class="atom-0" d="M 641.922 414.883 L 642.962 414.883 L 642.962 418.144 L 646.884 418.144 L 646.884 414.883 L 647.924 414.883 L 647.924 422.553 L 646.884 422.553 L 646.884 419.01 L 642.962 419.01 L 642.962 422.553 L 641.922 422.553 L 641.922 414.883 " fill="#0000FF"/>
<path class="atom-0" d="M 648.296 422.284 Q 648.482 421.805, 648.925 421.54 Q 649.368 421.269, 649.983 421.269 Q 650.748 421.269, 651.177 421.683 Q 651.606 422.098, 651.606 422.834 Q 651.606 423.585, 651.049 424.286 Q 650.498 424.987, 649.354 425.816 L 651.692 425.816 L 651.692 426.388 L 648.281 426.388 L 648.281 425.909 Q 649.225 425.237, 649.783 424.736 Q 650.348 424.236, 650.62 423.785 Q 650.891 423.335, 650.891 422.87 Q 650.891 422.384, 650.648 422.112 Q 650.405 421.841, 649.983 421.841 Q 649.576 421.841, 649.304 422.005 Q 649.032 422.169, 648.839 422.534 L 648.296 422.284 " fill="#0000FF"/>
<path class="atom-0" d="M 648.567 416.265 L 649.919 416.265 L 649.919 414.842 L 650.519 414.842 L 650.519 416.265 L 651.907 416.265 L 651.907 416.78 L 650.519 416.78 L 650.519 418.21 L 649.919 418.21 L 649.919 416.78 L 648.567 416.78 L 648.567 416.265 " fill="#0000FF"/>
<path d="M 654.073,417.634 L 654.071,417.588 L 654.065,417.542 L 654.055,417.496 L 654.041,417.452 L 654.024,417.409 L 654.003,417.367 L 653.978,417.328 L 653.95,417.29 L 653.919,417.256 L 653.885,417.224 L 653.848,417.195 L 653.809,417.169 L 653.768,417.147 L 653.725,417.129 L 653.681,417.114 L 653.636,417.103 L 653.59,417.096 L 653.543,417.093 L 653.497,417.094 L 653.45,417.099 L 653.405,417.108 L 653.36,417.121 L 653.316,417.137 L 653.274,417.158 L 653.234,417.182 L 653.196,417.209 L 653.161,417.239 L 653.129,417.273 L 653.099,417.309 L 653.072,417.347 L 653.049,417.388 L 653.03,417.43 L 653.014,417.474 L 653.002,417.519 L 652.994,417.565 L 652.99,417.611 L 652.99,417.658 L 652.994,417.704 L 653.002,417.75 L 653.014,417.795 L 653.03,417.839 L 653.049,417.881 L 653.072,417.922 L 653.099,417.96 L 653.129,417.996 L 653.161,418.03 L 653.196,418.06 L 653.234,418.087 L 653.274,418.111 L 653.316,418.132 L 653.36,418.148 L 653.405,418.161 L 653.45,418.17 L 653.497,418.175 L 653.543,418.176 L 653.59,418.173 L 653.636,418.166 L 653.681,418.155 L 653.725,418.14 L 653.768,418.122 L 653.809,418.1 L 653.848,418.074 L 653.885,418.045 L 653.919,418.013 L 653.95,417.979 L 653.978,417.941 L 654.003,417.902 L 654.024,417.86 L 654.041,417.817 L 654.055,417.773 L 654.065,417.727 L 654.071,417.681 L 654.073,417.634 L 653.532,417.634 Z" style="fill:#000000;fill-rule:evenodd;fill-opacity:1;stroke:#000000;stroke-width:0.0px;stroke-linecap:butt;stroke-linejoin:miter;stroke-opacity:1;"/>
<path d="M 654.073,419.801 L 654.071,419.755 L 654.065,419.708 L 654.055,419.663 L 654.041,419.618 L 654.024,419.575 L 654.003,419.534 L 653.978,419.494 L 653.95,419.457 L 653.919,419.422 L 653.885,419.39 L 653.848,419.362 L 653.809,419.336 L 653.768,419.314 L 653.725,419.295 L 653.681,419.281 L 653.636,419.27 L 653.59,419.263 L 653.543,419.26 L 653.497,419.261 L 653.45,419.266 L 653.405,419.275 L 653.36,419.287 L 653.316,419.304 L 653.274,419.325 L 653.234,419.348 L 653.196,419.376 L 653.161,419.406 L 653.129,419.439 L 653.099,419.475 L 653.072,419.514 L 653.049,419.554 L 653.03,419.597 L 653.014,419.64 L 653.002,419.686 L 652.994,419.731 L 652.99,419.778 L 652.99,419.825 L 652.994,419.871 L 653.002,419.917 L 653.014,419.962 L 653.03,420.006 L 653.049,420.048 L 653.072,420.089 L 653.099,420.127 L 653.129,420.163 L 653.161,420.196 L 653.196,420.227 L 653.234,420.254 L 653.274,420.278 L 653.316,420.298 L 653.36,420.315 L 653.405,420.328 L 653.45,420.337 L 653.497,420.342 L 653.543,420.343 L 653.59,420.34 L 653.636,420.333 L 653.681,420.322 L 653.725,420.307 L 653.768,420.289 L 653.809,420.266 L 653.848,420.241 L 653.885,420.212 L 653.919,420.18 L 653.95,420.145 L 653.978,420.108 L 654.003,420.069 L 654.024,420.027 L 654.041,419.984 L 654.055,419.94 L 654.065,419.894 L 654.071,419.848 L 654.073,419.801 L 653.532,419.801 Z" style="fill:#000000;fill-rule:evenodd;fill-opacity:1;stroke:#000000;stroke-width:0.0px;stroke-linecap:butt;stroke-linejoin:miter;stroke-opacity:1;"/>
<path class="bond-0 atom-0 atom-1" d="M 44.2707,674.737 L 53.8994,669.177" style="fill:none;fill-rule:evenodd;stroke:#000000;stroke-width:2.0px;stroke-linecap:butt;stroke-linejoin:miter;stroke-opacity:1"/>
<path class="bond-0 atom-0 atom-1" d="M 53.8994,669.177 L 63.5281,663.618" style="fill:none;fill-rule:evenodd;stroke:#FF0000;stroke-width:2.0px;stroke-linecap:butt;stroke-linejoin:miter;stroke-opacity:1"/>
<path class="bond-1 atom-1 atom-2" d="M 71.9241,663.618 L 79.8205,668.177" style="fill:none;fill-rule:evenodd;stroke:#FF0000;stroke-width:2.0px;stroke-linecap:butt;stroke-linejoin:miter;stroke-opacity:1"/>
<path class="bond-1 atom-1 atom-2" d="M 79.8205,668.177 L 87.7168,672.736" style="fill:none;fill-rule:evenodd;stroke:#0000FF;stroke-width:2.0px;stroke-linecap:butt;stroke-linejoin:miter;stroke-opacity:1"/>
<path class="bond-2 atom-2 atom-3" d="M 98.7501,670.367 L 104.704,666.929" style="fill:none;fill-rule:evenodd;stroke:#0000FF;stroke-width:2.0px;stroke-linecap:butt;stroke-linejoin:miter;stroke-opacity:1"/>
<path class="bond-2 atom-2 atom-3" d="M 104.704,666.929 L 110.657,663.492" style="fill:none;fill-rule:evenodd;stroke:#FF0000;stroke-width:2.0px;stroke-linecap:butt;stroke-linejoin:miter;stroke-opacity:1"/>
<path class="bond-3 atom-3 atom-4" d="M 118.835,663.618 L 126.962,668.31" style="fill:none;fill-rule:evenodd;stroke:#FF0000;stroke-width:2.0px;stroke-linecap:butt;stroke-linejoin:miter;stroke-opacity:1"/>
<path class="bond-3 atom-3 atom-4" d="M 126.962,668.31 L 135.088,673.002" style="fill:none;fill-rule:evenodd;stroke:#FF7F00;stroke-width:2.0px;stroke-linecap:butt;stroke-linejoin:miter;stroke-opacity:1"/>
<path class="bond-3 atom-3 atom-4" d="M 118.565,669.717 L 124.253,673.001" style="fill:none;fill-rule:evenodd;stroke:#FF0000;stroke-width:2.0px;stroke-linecap:butt;stroke-linejoin:miter;stroke-opacity:1"/>
<path class="bond-3 atom-3 atom-4" d="M 124.253,673.001 L 129.942,676.286" style="fill:none;fill-rule:evenodd;stroke:#FF7F00;stroke-width:2.0px;stroke-linecap:butt;stroke-linejoin:miter;stroke-opacity:1"/>
<path class="bond-4 atom-4 atom-5" d="M 141.218,672.932 L 149.635,668.072" style="fill:none;fill-rule:evenodd;stroke:#FF7F00;stroke-width:2.0px;stroke-linecap:butt;stroke-linejoin:miter;stroke-opacity:1"/>
<path class="bond-4 atom-4 atom-5" d="M 149.635,668.072 L 158.052,663.213" style="fill:none;fill-rule:evenodd;stroke:#0000FF;stroke-width:2.0px;stroke-linecap:butt;stroke-linejoin:miter;stroke-opacity:1"/>
<path class="bond-5 atom-5 atom-6" d="M 165.134,663.265 L 181.521,672.726" style="fill:none;fill-rule:evenodd;stroke:#0000FF;stroke-width:2.0px;stroke-linecap:butt;stroke-linejoin:miter;stroke-opacity:1"/>
<path class="bond-6 atom-6 atom-7" d="M 192.572,670.367 L 205.091,663.139" style="fill:none;fill-rule:evenodd;stroke:#0000FF;stroke-width:2.0px;stroke-linecap:butt;stroke-linejoin:miter;stroke-opacity:1"/>
<path class="bond-7 atom-7 atom-8" d="M 212.045,663.265 L 220.39,668.083" style="fill:none;fill-rule:evenodd;stroke:#0000FF;stroke-width:2.0px;stroke-linecap:butt;stroke-linejoin:miter;stroke-opacity:1"/>
<path class="bond-7 atom-7 atom-8" d="M 220.39,668.083 L 228.735,672.901" style="fill:none;fill-rule:evenodd;stroke:#7F4C19;stroke-width:2.0px;stroke-linecap:butt;stroke-linejoin:miter;stroke-opacity:1"/>
<path class="atom-1" d="M 64.2052 661.216 Q 64.2052 659.374, 65.1152 658.345 Q 66.0252 657.316, 67.7261 657.316 Q 69.427 657.316, 70.337 658.345 Q 71.247 659.374, 71.247 661.216 Q 71.247 663.08, 70.3262 664.141 Q 69.4053 665.192, 67.7261 665.192 Q 66.0361 665.192, 65.1152 664.141 Q 64.2052 663.09, 64.2052 661.216 M 67.7261 664.325 Q 68.8961 664.325, 69.5245 663.545 Q 70.1637 662.755, 70.1637 661.216 Q 70.1637 659.71, 69.5245 658.952 Q 68.8961 658.183, 67.7261 658.183 Q 66.5561 658.183, 65.9169 658.941 Q 65.2886 659.699, 65.2886 661.216 Q 65.2886 662.765, 65.9169 663.545 Q 66.5561 664.325, 67.7261 664.325 " fill="#FF0000"/>
<path class="atom-2" d="M 89.4861 670.901 L 91.9995 674.964 Q 92.2487 675.365, 92.6495 676.091 Q 93.0503 676.817, 93.072 676.86 L 93.072 670.901 L 94.0904 670.901 L 94.0904 678.572 L 93.0395 678.572 L 90.3419 674.13 Q 90.0278 673.61, 89.6919 673.014 Q 89.3669 672.418, 89.2694 672.234 L 89.2694 678.572 L 88.2727 678.572 L 88.2727 670.901 L 89.4861 670.901 " fill="#0000FF"/>
<path class="atom-2" d="M 94.7339 672.284 L 96.0853 672.284 L 96.0853 670.861 L 96.6859 670.861 L 96.6859 672.284 L 98.073 672.284 L 98.073 672.799 L 96.6859 672.799 L 96.6859 674.229 L 96.0853 674.229 L 96.0853 672.799 L 94.7339 672.799 L 94.7339 672.284 " fill="#0000FF"/>
<path class="atom-2" d="M 88.1806 679.339 L 89.2207 679.339 L 89.2207 682.6 L 93.1424 682.6 L 93.1424 679.339 L 94.1825 679.339 L 94.1825 687.009 L 93.1424 687.009 L 93.1424 683.466 L 89.2207 683.466 L 89.2207 687.009 L 88.1806 687.009 L 88.1806 679.339 " fill="#0000FF"/>
<path class="atom-2" d="M 94.5543 686.74 Q 94.7402 686.261, 95.1835 685.996 Q 95.6268 685.724, 96.2417 685.724 Q 97.0068 685.724, 97.4358 686.139 Q 97.8648 686.554, 97.8648 687.29 Q 97.8648 688.041, 97.3071 688.742 Q 96.7565 689.442, 95.6125 690.272 L 97.9506 690.272 L 97.9506 690.844 L 94.54 690.844 L 94.54 690.365 Q 95.4838 689.693, 96.0415 689.192 Q 96.6064 688.692, 96.8781 688.241 Q 97.1498 687.791, 97.1498 687.326 Q 97.1498 686.84, 96.9067 686.568 Q 96.6636 686.296, 96.2417 686.296 Q 95.8341 686.296, 95.5624 686.461 Q 95.2907 686.625, 95.0977 686.99 L 94.5543 686.74 " fill="#0000FF"/>
<path class="atom-3" d="M 111.116 661.216 Q 111.116 659.374, 112.026 658.345 Q 112.936 657.316, 114.637 657.316 Q 116.338 657.316, 117.248 658.345 Q 118.158 659.374, 118.158 661.216 Q 118.158 663.08, 117.237 664.141 Q 116.316 665.192, 114.637 665.192 Q 112.947 665.192, 112.026 664.141 Q 111.116 663.09, 111.116 661.216 M 114.637 664.325 Q 115.807 664.325, 116.435 663.545 Q 117.075 662.755, 117.075 661.216 Q 117.075 659.71, 116.435 658.952 Q 115.807 658.183, 114.637 658.183 Q 113.467 658.183, 112.828 658.941 Q 112.199 659.699, 112.199 661.216 Q 112.199 662.765, 112.828 663.545 Q 113.467 664.325, 114.637 664.325 " fill="#FF0000"/>
<path class="atom-3" d="M 118.801 658.682 L 120.153 658.682 L 120.153 657.26 L 120.753 657.26 L 120.753 658.682 L 122.141 658.682 L 122.141 659.197 L 120.753 659.197 L 120.753 660.627 L 120.153 660.627 L 120.153 659.197 L 118.801 659.197 L 118.801 658.682 " fill="#FF0000"/>
<path class="atom-4" d="M 137.908 670.901 Q 139.219 670.901, 139.88 671.497 Q 140.541 672.082, 140.541 673.155 Q 140.541 674.217, 139.858 674.823 Q 139.187 675.419, 137.908 675.419 L 136.684 675.419 L 136.684 678.572 L 135.644 678.572 L 135.644 670.901 L 137.908 670.901 M 137.908 674.552 Q 138.656 674.552, 139.057 674.195 Q 139.457 673.837, 139.457 673.155 Q 139.457 672.472, 139.057 672.126 Q 138.667 671.768, 137.908 671.768 L 136.684 671.768 L 136.684 674.552 L 137.908 674.552 " fill="#FF7F00"/>
<path class="atom-5" d="M 159.852 657.359 L 162.366 661.422 Q 162.615 661.823, 163.016 662.549 Q 163.417 663.275, 163.438 663.318 L 163.438 657.359 L 164.457 657.359 L 164.457 665.03 L 163.406 665.03 L 160.708 660.588 Q 160.394 660.068, 160.058 659.472 Q 159.733 658.876, 159.636 658.692 L 159.636 665.03 L 158.639 665.03 L 158.639 657.359 L 159.852 657.359 " fill="#0000FF"/>
<path class="atom-5" d="M 158.547 648.922 L 159.587 648.922 L 159.587 652.183 L 163.509 652.183 L 163.509 648.922 L 164.549 648.922 L 164.549 656.592 L 163.509 656.592 L 163.509 653.05 L 159.587 653.05 L 159.587 656.592 L 158.547 656.592 L 158.547 648.922 " fill="#0000FF"/>
<path class="atom-5" d="M 164.921 656.323 Q 165.106 655.844, 165.55 655.58 Q 165.993 655.308, 166.608 655.308 Q 167.373 655.308, 167.802 655.723 Q 168.231 656.137, 168.231 656.874 Q 168.231 657.625, 167.673 658.325 Q 167.123 659.026, 165.979 659.855 L 168.317 659.855 L 168.317 660.427 L 164.906 660.427 L 164.906 659.948 Q 165.85 659.276, 166.408 658.776 Q 166.973 658.275, 167.244 657.825 Q 167.516 657.374, 167.516 656.91 Q 167.516 656.423, 167.273 656.152 Q 167.03 655.88, 166.608 655.88 Q 166.2 655.88, 165.929 656.044 Q 165.657 656.209, 165.464 656.574 L 164.921 656.323 " fill="#0000FF"/>
<path class="atom-5" d="M 165.192 650.305 L 166.544 650.305 L 166.544 648.882 L 167.144 648.882 L 167.144 650.305 L 168.531 650.305 L 168.531 650.82 L 167.144 650.82 L 167.144 652.25 L 166.544 652.25 L 166.544 650.82 L 165.192 650.82 L 165.192 650.305 " fill="#0000FF"/>
<path class="atom-6" d="M 183.308 670.901 L 185.821 674.964 Q 186.07 675.365, 186.471 676.091 Q 186.872 676.817, 186.894 676.86 L 186.894 670.901 L 187.912 670.901 L 187.912 678.572 L 186.861 678.572 L 184.164 674.13 Q 183.849 673.61, 183.514 673.014 Q 183.189 672.418, 183.091 672.234 L 183.091 678.572 L 182.094 678.572 L 182.094 670.901 L 183.308 670.901 " fill="#0000FF"/>
<path class="atom-6" d="M 188.556 672.284 L 189.907 672.284 L 189.907 670.861 L 190.508 670.861 L 190.508 672.284 L 191.895 672.284 L 191.895 672.799 L 190.508 672.799 L 190.508 674.229 L 189.907 674.229 L 189.907 672.799 L 188.556 672.799 L 188.556 672.284 " fill="#0000FF"/>
<path class="atom-6" d="M 182.002 679.339 L 183.042 679.339 L 183.042 682.6 L 186.964 682.6 L 186.964 679.339 L 188.004 679.339 L 188.004 687.009 L 186.964 687.009 L 186.964 683.466 L 183.042 683.466 L 183.042 687.009 L 182.002 687.009 L 182.002 679.339 " fill="#0000FF"/>
<path class="atom-6" d="M 188.376 686.74 Q 188.562 686.261, 189.005 685.996 Q 189.449 685.724, 190.063 685.724 Q 190.828 685.724, 191.257 686.139 Q 191.687 686.554, 191.687 687.29 Q 191.687 688.041, 191.129 688.742 Q 190.578 689.442, 189.434 690.272 L 191.772 690.272 L 191.772 690.844 L 188.362 690.844 L 188.362 690.365 Q 189.305 689.693, 189.863 689.192 Q 190.428 688.692, 190.7 688.241 Q 190.971 687.791, 190.971 687.326 Q 190.971 686.84, 190.728 686.568 Q 190.485 686.296, 190.063 686.296 Q 189.656 686.296, 189.384 686.461 Q 189.112 686.625, 188.919 686.99 L 188.376 686.74 " fill="#0000FF"/>
<path class="atom-7" d="M 206.763 657.359 L 209.277 661.422 Q 209.526 661.823, 209.927 662.549 Q 210.327 663.275, 210.349 663.318 L 210.349 657.359 L 211.368 657.359 L 211.368 665.03 L 210.317 665.03 L 207.619 660.588 Q 207.305 660.068, 206.969 659.472 Q 206.644 658.876, 206.547 658.692 L 206.547 665.03 L 205.55 665.03 L 205.55 657.359 L 206.763 657.359 " fill="#0000FF"/>
<path class="atom-7" d="M 211.725 658.628 L 214.349 658.628 L 214.349 659.2 L 211.725 659.2 L 211.725 658.628 " fill="#0000FF"/>
<path class="atom-8" d="M 233.035 674.542 Q 233.772 674.747, 234.14 675.202 Q 234.52 675.647, 234.52 676.307 Q 234.52 677.369, 233.837 677.976 Q 233.165 678.572, 231.887 678.572 L 229.309 678.572 L 229.309 670.901 L 231.573 670.901 Q 232.884 670.901, 233.545 671.432 Q 234.205 671.963, 234.205 672.938 Q 234.205 674.097, 233.035 674.542 M 230.338 671.768 L 230.338 674.173 L 231.573 674.173 Q 232.331 674.173, 232.721 673.87 Q 233.122 673.556, 233.122 672.938 Q 233.122 671.768, 231.573 671.768 L 230.338 671.768 M 231.887 677.705 Q 232.635 677.705, 233.035 677.347 Q 233.436 676.99, 233.436 676.307 Q 233.436 675.679, 232.992 675.365 Q 232.559 675.04, 231.725 675.04 L 230.338 675.04 L 230.338 677.705 L 231.887 677.705 " fill="#7F4C19"/>
<path class="atom-8" d="M 236.264 673.003 L 236.383 673.772 Q 236.968 672.906, 237.921 672.906 Q 238.225 672.906, 238.636 673.014 L 238.474 673.924 Q 238.008 673.816, 237.748 673.816 Q 237.293 673.816, 236.99 674 Q 236.697 674.173, 236.459 674.596 L 236.459 678.572 L 235.44 678.572 L 235.44 673.003 L 236.264 673.003 " fill="#7F4C19"/>
<path d="M 41.5623,673.653 L 41.5603,673.607 L 41.5543,673.56 L 41.5443,673.515 L 41.5305,673.47 L 41.5129,673.427 L 41.4917,673.386 L 41.4669,673.346 L 41.4389,673.309 L 41.4077,673.274 L 41.3737,673.242 L 41.3371,673.214 L 41.2982,673.188 L 41.2571,673.166 L 41.2144,673.147 L 41.1702,673.133 L 41.1249,673.122 L 41.0788,673.115 L 41.0323,673.112 L 40.9857,673.113 L 40.9393,673.118 L 40.8936,673.127 L 40.8488,673.139 L 40.8053,673.156 L 40.7633,673.176 L 40.7233,673.2 L 40.6855,673.228 L 40.6501,673.258 L 40.6175,673.291 L 40.5879,673.327 L 40.5615,673.366 L 40.5385,673.406 L 40.5191,673.449 L 40.5033,673.492 L 40.4914,673.537 L 40.4834,673.583 L 40.4794,673.63 L 40.4794,673.676 L 40.4834,673.723 L 40.4914,673.769 L 40.5033,673.814 L 40.5191,673.858 L 40.5385,673.9 L 40.5615,673.941 L 40.5879,673.979 L 40.6175,674.015 L 40.6501,674.048 L 40.6855,674.079 L 40.7233,674.106 L 40.7633,674.13 L 40.8053,674.15 L 40.8488,674.167 L 40.8936,674.18 L 40.9393,674.189 L 40.9857,674.194 L 41.0323,674.195 L 41.0788,674.192 L 41.1249,674.185 L 41.1702,674.174 L 41.2144,674.159 L 41.2571,674.14 L 41.2982,674.118 L 41.3371,674.093 L 41.3737,674.064 L 41.4077,674.032 L 41.4389,673.997 L 41.4669,673.96 L 41.4917,673.921 L 41.5129,673.879 L 41.5305,673.836 L 41.5443,673.791 L 41.5543,673.746 L 41.5603,673.7 L 41.5623,673.653 L 41.0206,673.653 Z" style="fill:#000000;fill-rule:evenodd;fill-opacity:1;stroke:#000000;stroke-width:0.0px;stroke-linecap:butt;stroke-linejoin:miter;stroke-opacity:1;"/>
<path d="M 41.5623,675.82 L 41.5603,675.773 L 41.5543,675.727 L 41.5443,675.682 L 41.5305,675.637 L 41.5129,675.594 L 41.4917,675.552 L 41.4669,675.513 L 41.4389,675.476 L 41.4077,675.441 L 41.3737,675.409 L 41.3371,675.38 L 41.2982,675.355 L 41.2571,675.333 L 41.2144,675.314 L 41.1702,675.299 L 41.1249,675.288 L 41.0788,675.281 L 41.0323,675.278 L 40.9857,675.279 L 40.9393,675.284 L 40.8936,675.293 L 40.8488,675.306 L 40.8053,675.323 L 40.7633,675.343 L 40.7233,675.367 L 40.6855,675.394 L 40.6501,675.425 L 40.6175,675.458 L 40.5879,675.494 L 40.5615,675.532 L 40.5385,675.573 L 40.5191,675.615 L 40.5033,675.659 L 40.4914,675.704 L 40.4834,675.75 L 40.4794,675.797 L 40.4794,675.843 L 40.4834,675.89 L 40.4914,675.936 L 40.5033,675.981 L 40.5191,676.024 L 40.5385,676.067 L 40.5615,676.107 L 40.5879,676.146 L 40.6175,676.182 L 40.6501,676.215 L 40.6855,676.245 L 40.7233,676.273 L 40.7633,676.297 L 40.8053,676.317 L 40.8488,676.334 L 40.8936,676.346 L 40.9393,676.355 L 40.9857,676.36 L 41.0323,676.361 L 41.0788,676.358 L 41.1249,676.351 L 41.1702,676.34 L 41.2144,676.326 L 41.2571,676.307 L 41.2982,676.285 L 41.3371,676.259 L 41.3737,676.231 L 41.4077,676.199 L 41.4389,676.164 L 41.4669,676.127 L 41.4917,676.087 L 41.5129,676.046 L 41.5305,676.003 L 41.5443,675.958 L 41.5543,675.913 L 41.5603,675.866 L 41.5623,675.82 L 41.0206,675.82 Z" style="fill:#000000;fill-rule:evenodd;fill-opacity:1;stroke:#000000;stroke-width:0.0px;stroke-linecap:butt;stroke-linejoin:miter;stroke-opacity:1;"/>
<path class="bond-0 atom-0 atom-1" d="M 374.55,668.718 L 386.614,668.718" style="fill:none;fill-rule:evenodd;stroke:#000000;stroke-width:2.0px;stroke-linecap:butt;stroke-linejoin:miter;stroke-opacity:1"/>
<path class="bond-0 atom-0 atom-1" d="M 386.614,668.718 L 398.677,668.718" style="fill:none;fill-rule:evenodd;stroke:#33CCCC;stroke-width:2.0px;stroke-linecap:butt;stroke-linejoin:miter;stroke-opacity:1"/>
<path class="atom-1" d="M 399.354 664.883 L 403.915 664.883 L 403.915 665.76 L 400.383 665.76 L 400.383 668.089 L 403.525 668.089 L 403.525 668.978 L 400.383 668.978 L 400.383 672.553 L 399.354 672.553 L 399.354 664.883 " fill="#33CCCC"/>
<path d="M 371.842,667.634 L 371.84,667.588 L 371.834,667.542 L 371.824,667.496 L 371.81,667.452 L 371.793,667.409 L 371.771,667.367 L 371.747,667.328 L 371.719,667.29 L 371.687,667.256 L 371.653,667.224 L 371.617,667.195 L 371.578,667.169 L 371.537,667.147 L 371.494,667.129 L 371.45,667.114 L 371.405,667.103 L 371.358,667.096 L 371.312,667.093 L 371.265,667.094 L 371.219,667.099 L 371.173,667.108 L 371.129,667.121 L 371.085,667.137 L 371.043,667.158 L 371.003,667.182 L 370.965,667.209 L 370.93,667.239 L 370.897,667.273 L 370.868,667.309 L 370.841,667.347 L 370.818,667.388 L 370.799,667.43 L 370.783,667.474 L 370.771,667.519 L 370.763,667.565 L 370.759,667.611 L 370.759,667.658 L 370.763,667.704 L 370.771,667.75 L 370.783,667.795 L 370.799,667.839 L 370.818,667.881 L 370.841,667.922 L 370.868,667.96 L 370.897,667.996 L 370.93,668.03 L 370.965,668.06 L 371.003,668.087 L 371.043,668.111 L 371.085,668.132 L 371.129,668.148 L 371.173,668.161 L 371.219,668.17 L 371.265,668.175 L 371.312,668.176 L 371.358,668.173 L 371.405,668.166 L 371.45,668.155 L 371.494,668.14 L 371.537,668.122 L 371.578,668.1 L 371.617,668.074 L 371.653,668.045 L 371.687,668.013 L 371.719,667.979 L 371.747,667.941 L 371.771,667.902 L 371.793,667.86 L 371.81,667.817 L 371.824,667.773 L 371.834,667.727 L 371.84,667.681 L 371.842,667.634 L 371.3,667.634 Z" style="fill:#000000;fill-rule:evenodd;fill-opacity:1;stroke:#000000;stroke-width:0.0px;stroke-linecap:butt;stroke-linejoin:miter;stroke-opacity:1;"/>
<path d="M 371.842,669.801 L 371.84,669.755 L 371.834,669.708 L 371.824,669.663 L 371.81,669.618 L 371.793,669.575 L 371.771,669.534 L 371.747,669.494 L 371.719,669.457 L 371.687,669.422 L 371.653,669.39 L 371.617,669.362 L 371.578,669.336 L 371.537,669.314 L 371.494,669.295 L 371.45,669.281 L 371.405,669.27 L 371.358,669.263 L 371.312,669.26 L 371.265,669.261 L 371.219,669.266 L 371.173,669.275 L 371.129,669.287 L 371.085,669.304 L 371.043,669.325 L 371.003,669.348 L 370.965,669.376 L 370.93,669.406 L 370.897,669.439 L 370.868,669.475 L 370.841,669.514 L 370.818,669.554 L 370.799,669.597 L 370.783,669.64 L 370.771,669.686 L 370.763,669.731 L 370.759,669.778 L 370.759,669.825 L 370.763,669.871 L 370.771,669.917 L 370.783,669.962 L 370.799,670.006 L 370.818,670.048 L 370.841,670.089 L 370.868,670.127 L 370.897,670.163 L 370.93,670.196 L 370.965,670.227 L 371.003,670.254 L 371.043,670.278 L 371.085,670.298 L 371.129,670.315 L 371.173,670.328 L 371.219,670.337 L 371.265,670.342 L 371.312,670.343 L 371.358,670.34 L 371.405,670.333 L 371.45,670.322 L 371.494,670.307 L 371.537,670.289 L 371.578,670.266 L 371.617,670.241 L 371.653,670.212 L 371.687,670.18 L 371.719,670.145 L 371.747,670.108 L 371.771,670.069 L 371.793,670.027 L 371.81,669.984 L 371.824,669.94 L 371.834,669.894 L 371.84,669.848 L 371.842,669.801 L 371.3,669.801 Z" style="fill:#000000;fill-rule:evenodd;fill-opacity:1;stroke:#000000;stroke-width:0.0px;stroke-linecap:butt;stroke-linejoin:miter;stroke-opacity:1;"/>
<path class="bond-0 atom-0 atom-1" d="M 594.767,672.064 L 611.155,662.603" style="fill:none;fill-rule:evenodd;stroke:#0000FF;stroke-width:2.0px;stroke-linecap:butt;stroke-linejoin:miter;stroke-opacity:1"/>
<path class="bond-1 atom-1 atom-2" d="M 618.223,662.663 L 634.61,672.124" style="fill:none;fill-rule:evenodd;stroke:#0000FF;stroke-width:2.0px;stroke-linecap:butt;stroke-linejoin:miter;stroke-opacity:1"/>
<path class="bond-2 atom-2 atom-3" d="M 645.661,669.765 L 652.151,666.018" style="fill:none;fill-rule:evenodd;stroke:#0000FF;stroke-width:2.0px;stroke-linecap:butt;stroke-linejoin:miter;stroke-opacity:1"/>
<path class="bond-2 atom-2 atom-3" d="M 652.151,666.018 L 658.641,662.271" style="fill:none;fill-rule:evenodd;stroke:#FF7F00;stroke-width:2.0px;stroke-linecap:butt;stroke-linejoin:miter;stroke-opacity:1"/>
<path class="bond-3 atom-3 atom-4" d="M 663.319,664.743 L 671.43,669.426" style="fill:none;fill-rule:evenodd;stroke:#FF7F00;stroke-width:2.0px;stroke-linecap:butt;stroke-linejoin:miter;stroke-opacity:1"/>
<path class="bond-3 atom-3 atom-4" d="M 671.43,669.426 L 679.541,674.109" style="fill:none;fill-rule:evenodd;stroke:#FF0000;stroke-width:2.0px;stroke-linecap:butt;stroke-linejoin:miter;stroke-opacity:1"/>
<path class="bond-3 atom-3 atom-4" d="M 666.028,660.052 L 674.139,664.735" style="fill:none;fill-rule:evenodd;stroke:#FF7F00;stroke-width:2.0px;stroke-linecap:butt;stroke-linejoin:miter;stroke-opacity:1"/>
<path class="bond-3 atom-3 atom-4" d="M 674.139,664.735 L 682.25,669.417" style="fill:none;fill-rule:evenodd;stroke:#FF0000;stroke-width:2.0px;stroke-linecap:butt;stroke-linejoin:miter;stroke-opacity:1"/>
<path class="atom-0" d="M 577.604 670.3 L 578.644 670.3 L 578.644 673.56 L 582.565 673.56 L 582.565 670.3 L 583.605 670.3 L 583.605 677.97 L 582.565 677.97 L 582.565 674.427 L 578.644 674.427 L 578.644 677.97 L 577.604 677.97 L 577.604 670.3 " fill="#0000FF"/>
<path class="atom-0" d="M 583.977 677.701 Q 584.163 677.222, 584.606 676.957 Q 585.05 676.685, 585.665 676.685 Q 586.43 676.685, 586.859 677.1 Q 587.288 677.515, 587.288 678.251 Q 587.288 679.002, 586.73 679.703 Q 586.179 680.403, 585.035 681.233 L 587.374 681.233 L 587.374 681.805 L 583.963 681.805 L 583.963 681.326 Q 584.907 680.654, 585.464 680.153 Q 586.029 679.653, 586.301 679.202 Q 586.573 678.752, 586.573 678.287 Q 586.573 677.801, 586.33 677.529 Q 586.087 677.257, 585.665 677.257 Q 585.257 677.257, 584.985 677.422 Q 584.714 677.586, 584.521 677.951 L 583.977 677.701 " fill="#0000FF"/>
<path class="atom-0" d="M 589.486 670.3 L 591.999 674.362 Q 592.249 674.763, 592.649 675.489 Q 593.05 676.215, 593.072 676.258 L 593.072 670.3 L 594.09 670.3 L 594.09 677.97 L 593.04 677.97 L 590.342 673.528 Q 590.028 673.008, 589.692 672.412 Q 589.367 671.816, 589.269 671.632 L 589.269 677.97 L 588.273 677.97 L 588.273 670.3 L 589.486 670.3 " fill="#0000FF"/>
<path class="atom-1" d="M 612.942 656.758 L 615.455 660.82 Q 615.704 661.221, 616.105 661.947 Q 616.506 662.673, 616.527 662.716 L 616.527 656.758 L 617.546 656.758 L 617.546 664.428 L 616.495 664.428 L 613.797 659.986 Q 613.483 659.466, 613.147 658.87 Q 612.822 658.274, 612.725 658.09 L 612.725 664.428 L 611.728 664.428 L 611.728 656.758 L 612.942 656.758 " fill="#0000FF"/>
<path class="atom-1" d="M 611.636 648.32 L 612.676 648.32 L 612.676 651.581 L 616.598 651.581 L 616.598 648.32 L 617.638 648.32 L 617.638 655.991 L 616.598 655.991 L 616.598 652.448 L 612.676 652.448 L 612.676 655.991 L 611.636 655.991 L 611.636 648.32 " fill="#0000FF"/>
<path class="atom-2" d="M 636.397 670.3 L 638.91 674.362 Q 639.16 674.763, 639.56 675.489 Q 639.961 676.215, 639.983 676.258 L 639.983 670.3 L 641.001 670.3 L 641.001 677.97 L 639.95 677.97 L 637.253 673.528 Q 636.939 673.008, 636.603 672.412 Q 636.278 671.816, 636.18 671.632 L 636.18 677.97 L 635.184 677.97 L 635.184 670.3 L 636.397 670.3 " fill="#0000FF"/>
<path class="atom-2" d="M 641.645 671.682 L 642.996 671.682 L 642.996 670.259 L 643.597 670.259 L 643.597 671.682 L 644.984 671.682 L 644.984 672.197 L 643.597 672.197 L 643.597 673.627 L 642.996 673.627 L 642.996 672.197 L 641.645 672.197 L 641.645 671.682 " fill="#0000FF"/>
<path class="atom-2" d="M 635.091 678.737 L 636.132 678.737 L 636.132 681.998 L 640.053 681.998 L 640.053 678.737 L 641.093 678.737 L 641.093 686.407 L 640.053 686.407 L 640.053 682.864 L 636.132 682.864 L 636.132 686.407 L 635.091 686.407 L 635.091 678.737 " fill="#0000FF"/>
<path class="atom-2" d="M 641.465 686.138 Q 641.651 685.659, 642.094 685.394 Q 642.538 685.123, 643.153 685.123 Q 643.918 685.123, 644.347 685.537 Q 644.776 685.952, 644.776 686.688 Q 644.776 687.439, 644.218 688.14 Q 643.667 688.841, 642.523 689.67 L 644.861 689.67 L 644.861 690.242 L 641.451 690.242 L 641.451 689.763 Q 642.395 689.091, 642.952 688.59 Q 643.517 688.09, 643.789 687.639 Q 644.061 687.189, 644.061 686.724 Q 644.061 686.238, 643.818 685.966 Q 643.574 685.695, 643.153 685.695 Q 642.745 685.695, 642.473 685.859 Q 642.202 686.023, 642.009 686.388 L 641.465 686.138 " fill="#0000FF"/>
<path class="atom-3" d="M 661.364 656.758 Q 662.675 656.758, 663.335 657.353 Q 663.996 657.938, 663.996 659.011 Q 663.996 660.073, 663.314 660.679 Q 662.642 661.275, 661.364 661.275 L 660.139 661.275 L 660.139 664.428 L 659.099 664.428 L 659.099 656.758 L 661.364 656.758 M 661.364 660.408 Q 662.111 660.408, 662.512 660.051 Q 662.913 659.693, 662.913 659.011 Q 662.913 658.328, 662.512 657.982 Q 662.122 657.624, 661.364 657.624 L 660.139 657.624 L 660.139 660.408 L 661.364 660.408 " fill="#FF7F00"/>
<path class="atom-3" d="M 658.547 648.32 L 659.587 648.32 L 659.587 651.581 L 663.509 651.581 L 663.509 648.32 L 664.549 648.32 L 664.549 655.991 L 663.509 655.991 L 663.509 652.448 L 659.587 652.448 L 659.587 655.991 L 658.547 655.991 L 658.547 648.32 " fill="#FF7F00"/>
<path class="atom-3" d="M 664.921 655.721 Q 665.106 655.242, 665.55 654.978 Q 665.993 654.706, 666.608 654.706 Q 667.373 654.706, 667.802 655.121 Q 668.231 655.536, 668.231 656.272 Q 668.231 657.023, 667.673 657.723 Q 667.123 658.424, 665.979 659.254 L 668.317 659.254 L 668.317 659.826 L 664.906 659.826 L 664.906 659.347 Q 665.85 658.674, 666.408 658.174 Q 666.973 657.673, 667.244 657.223 Q 667.516 656.773, 667.516 656.308 Q 667.516 655.822, 667.273 655.55 Q 667.03 655.278, 666.608 655.278 Q 666.2 655.278, 665.929 655.443 Q 665.657 655.607, 665.464 655.972 L 664.921 655.721 " fill="#FF7F00"/>
<path class="atom-4" d="M 681.482 674.156 Q 681.482 672.315, 682.392 671.285 Q 683.302 670.256, 685.003 670.256 Q 686.704 670.256, 687.614 671.285 Q 688.524 672.315, 688.524 674.156 Q 688.524 676.02, 687.603 677.081 Q 686.682 678.132, 685.003 678.132 Q 683.313 678.132, 682.392 677.081 Q 681.482 676.031, 681.482 674.156 M 685.003 677.266 Q 686.173 677.266, 686.802 676.486 Q 687.441 675.695, 687.441 674.156 Q 687.441 672.65, 686.802 671.892 Q 686.173 671.123, 685.003 671.123 Q 683.833 671.123, 683.194 671.881 Q 682.566 672.64, 682.566 674.156 Q 682.566 675.706, 683.194 676.486 Q 683.833 677.266, 685.003 677.266 " fill="#FF0000"/>
<path class="atom-4" d="M 689.445 670.343 L 690.485 670.343 L 690.485 673.604 L 694.407 673.604 L 694.407 670.343 L 695.447 670.343 L 695.447 678.013 L 694.407 678.013 L 694.407 674.47 L 690.485 674.47 L 690.485 678.013 L 689.445 678.013 L 689.445 670.343 " fill="#FF0000"/>
<path class="atom-4" d="M 696.09 671.725 L 697.442 671.725 L 697.442 670.303 L 698.042 670.303 L 698.042 671.725 L 699.429 671.725 L 699.429 672.24 L 698.042 672.24 L 698.042 673.67 L 697.442 673.67 L 697.442 672.24 L 696.09 672.24 L 696.09 671.725 " fill="#FF0000"/>
</svg>